<?xml version="1.0" encoding="utf-8" standalone="no"?>
<!DOCTYPE svg PUBLIC "-//W3C//DTD SVG 1.1//EN"
  "http://www.w3.org/Graphics/SVG/1.1/DTD/svg11.dtd">
<svg xmlns:xlink="http://www.w3.org/1999/xlink" width="431.1125pt" height="342.159187pt" viewBox="0 0 431.1125 342.159187" xmlns="http://www.w3.org/2000/svg" version="1.1">
 <metadata>
  <rdf:RDF xmlns:dc="http://purl.org/dc/elements/1.1/" xmlns:cc="http://creativecommons.org/ns#" xmlns:rdf="http://www.w3.org/1999/02/22-rdf-syntax-ns#">
   <cc:Work>
    <dc:type rdf:resource="http://purl.org/dc/dcmitype/StillImage"/>
    <dc:date>2025-11-19T11:21:18.581203</dc:date>
    <dc:format>image/svg+xml</dc:format>
    <dc:creator>
     <cc:Agent>
      <dc:title>Matplotlib v3.5.3, https://matplotlib.org/</dc:title>
     </cc:Agent>
    </dc:creator>
   </cc:Work>
  </rdf:RDF>
 </metadata>
 <defs>
  <style type="text/css">*{stroke-linejoin: round; stroke-linecap: butt}</style>
 </defs>
 <g id="figure_1">
  <g id="patch_1">
   <path d="M 0 342.159187 
L 431.1125 342.159187 
L 431.1125 0 
L 0 0 
z
" style="fill: #ffffff"/>
  </g>
  <g id="axes_1">
   <g id="patch_2">
    <path d="M 66.7925 292.989187 
L 423.9125 292.989187 
L 423.9125 26.877187 
L 66.7925 26.877187 
z
" style="fill: #ffffff"/>
   </g>
   <g id="matplotlib.axis_1">
    <g id="xtick_1">
     <g id="line2d_1">
      <defs>
       <path id="mcb1962e3b2" d="M 0 0 
L 0 3.5 
" style="stroke: #000000; stroke-width: 0.8"/>
      </defs>
      <g>
       <use xlink:href="#mcb1962e3b2" x="66.7925" y="292.989187" style="stroke: #000000; stroke-width: 0.8"/>
      </g>
     </g>
     <g id="text_1">
      <!-- 0.2 -->
      <g transform="translate(55.660313 310.627)scale(0.14 -0.14)">
       <defs>
        <path id="DejaVuSans-30" d="M 2034 4250 
Q 1547 4250 1301 3770 
Q 1056 3291 1056 2328 
Q 1056 1369 1301 889 
Q 1547 409 2034 409 
Q 2525 409 2770 889 
Q 3016 1369 3016 2328 
Q 3016 3291 2770 3770 
Q 2525 4250 2034 4250 
z
M 2034 4750 
Q 2819 4750 3233 4129 
Q 3647 3509 3647 2328 
Q 3647 1150 3233 529 
Q 2819 -91 2034 -91 
Q 1250 -91 836 529 
Q 422 1150 422 2328 
Q 422 3509 836 4129 
Q 1250 4750 2034 4750 
z
" transform="scale(0.015625)"/>
        <path id="DejaVuSans-2e" d="M 684 794 
L 1344 794 
L 1344 0 
L 684 0 
L 684 794 
z
" transform="scale(0.015625)"/>
        <path id="DejaVuSans-32" d="M 1228 531 
L 3431 531 
L 3431 0 
L 469 0 
L 469 531 
Q 828 903 1448 1529 
Q 2069 2156 2228 2338 
Q 2531 2678 2651 2914 
Q 2772 3150 2772 3378 
Q 2772 3750 2511 3984 
Q 2250 4219 1831 4219 
Q 1534 4219 1204 4116 
Q 875 4013 500 3803 
L 500 4441 
Q 881 4594 1212 4672 
Q 1544 4750 1819 4750 
Q 2544 4750 2975 4387 
Q 3406 4025 3406 3419 
Q 3406 3131 3298 2873 
Q 3191 2616 2906 2266 
Q 2828 2175 2409 1742 
Q 1991 1309 1228 531 
z
" transform="scale(0.015625)"/>
       </defs>
       <use xlink:href="#DejaVuSans-30"/>
       <use xlink:href="#DejaVuSans-2e" x="63.623047"/>
       <use xlink:href="#DejaVuSans-32" x="95.410156"/>
      </g>
     </g>
    </g>
    <g id="xtick_2">
     <g id="line2d_2">
      <g>
       <use xlink:href="#mcb1962e3b2" x="95.135357" y="292.989187" style="stroke: #000000; stroke-width: 0.8"/>
      </g>
     </g>
     <g id="text_2">
      <!-- 0.7 -->
      <g transform="translate(84.00317 310.627)scale(0.14 -0.14)">
       <defs>
        <path id="DejaVuSans-37" d="M 525 4666 
L 3525 4666 
L 3525 4397 
L 1831 0 
L 1172 0 
L 2766 4134 
L 525 4134 
L 525 4666 
z
" transform="scale(0.015625)"/>
       </defs>
       <use xlink:href="#DejaVuSans-30"/>
       <use xlink:href="#DejaVuSans-2e" x="63.623047"/>
       <use xlink:href="#DejaVuSans-37" x="95.410156"/>
      </g>
     </g>
    </g>
    <g id="xtick_3">
     <g id="line2d_3">
      <g>
       <use xlink:href="#mcb1962e3b2" x="123.478214" y="292.989187" style="stroke: #000000; stroke-width: 0.8"/>
      </g>
     </g>
     <g id="text_3">
      <!-- 1.2 -->
      <g transform="translate(112.346027 310.627)scale(0.14 -0.14)">
       <defs>
        <path id="DejaVuSans-31" d="M 794 531 
L 1825 531 
L 1825 4091 
L 703 3866 
L 703 4441 
L 1819 4666 
L 2450 4666 
L 2450 531 
L 3481 531 
L 3481 0 
L 794 0 
L 794 531 
z
" transform="scale(0.015625)"/>
       </defs>
       <use xlink:href="#DejaVuSans-31"/>
       <use xlink:href="#DejaVuSans-2e" x="63.623047"/>
       <use xlink:href="#DejaVuSans-32" x="95.410156"/>
      </g>
     </g>
    </g>
    <g id="xtick_4">
     <g id="line2d_4">
      <g>
       <use xlink:href="#mcb1962e3b2" x="151.821071" y="292.989187" style="stroke: #000000; stroke-width: 0.8"/>
      </g>
     </g>
     <g id="text_4">
      <!-- 1.7 -->
      <g transform="translate(140.688884 310.627)scale(0.14 -0.14)">
       <use xlink:href="#DejaVuSans-31"/>
       <use xlink:href="#DejaVuSans-2e" x="63.623047"/>
       <use xlink:href="#DejaVuSans-37" x="95.410156"/>
      </g>
     </g>
    </g>
    <g id="xtick_5">
     <g id="line2d_5">
      <g>
       <use xlink:href="#mcb1962e3b2" x="180.163929" y="292.989187" style="stroke: #000000; stroke-width: 0.8"/>
      </g>
     </g>
     <g id="text_5">
      <!-- 2.2 -->
      <g transform="translate(169.031741 310.627)scale(0.14 -0.14)">
       <use xlink:href="#DejaVuSans-32"/>
       <use xlink:href="#DejaVuSans-2e" x="63.623047"/>
       <use xlink:href="#DejaVuSans-32" x="95.410156"/>
      </g>
     </g>
    </g>
    <g id="xtick_6">
     <g id="line2d_6">
      <g>
       <use xlink:href="#mcb1962e3b2" x="208.506786" y="292.989187" style="stroke: #000000; stroke-width: 0.8"/>
      </g>
     </g>
     <g id="text_6">
      <!-- 2.7 -->
      <g transform="translate(197.374598 310.627)scale(0.14 -0.14)">
       <use xlink:href="#DejaVuSans-32"/>
       <use xlink:href="#DejaVuSans-2e" x="63.623047"/>
       <use xlink:href="#DejaVuSans-37" x="95.410156"/>
      </g>
     </g>
    </g>
    <g id="xtick_7">
     <g id="line2d_7">
      <g>
       <use xlink:href="#mcb1962e3b2" x="236.849643" y="292.989187" style="stroke: #000000; stroke-width: 0.8"/>
      </g>
     </g>
     <g id="text_7">
      <!-- 3.2 -->
      <g transform="translate(225.717455 310.627)scale(0.14 -0.14)">
       <defs>
        <path id="DejaVuSans-33" d="M 2597 2516 
Q 3050 2419 3304 2112 
Q 3559 1806 3559 1356 
Q 3559 666 3084 287 
Q 2609 -91 1734 -91 
Q 1441 -91 1130 -33 
Q 819 25 488 141 
L 488 750 
Q 750 597 1062 519 
Q 1375 441 1716 441 
Q 2309 441 2620 675 
Q 2931 909 2931 1356 
Q 2931 1769 2642 2001 
Q 2353 2234 1838 2234 
L 1294 2234 
L 1294 2753 
L 1863 2753 
Q 2328 2753 2575 2939 
Q 2822 3125 2822 3475 
Q 2822 3834 2567 4026 
Q 2313 4219 1838 4219 
Q 1578 4219 1281 4162 
Q 984 4106 628 3988 
L 628 4550 
Q 988 4650 1302 4700 
Q 1616 4750 1894 4750 
Q 2613 4750 3031 4423 
Q 3450 4097 3450 3541 
Q 3450 3153 3228 2886 
Q 3006 2619 2597 2516 
z
" transform="scale(0.015625)"/>
       </defs>
       <use xlink:href="#DejaVuSans-33"/>
       <use xlink:href="#DejaVuSans-2e" x="63.623047"/>
       <use xlink:href="#DejaVuSans-32" x="95.410156"/>
      </g>
     </g>
    </g>
    <g id="xtick_8">
     <g id="line2d_8">
      <g>
       <use xlink:href="#mcb1962e3b2" x="265.1925" y="292.989187" style="stroke: #000000; stroke-width: 0.8"/>
      </g>
     </g>
     <g id="text_8">
      <!-- 3.7 -->
      <g transform="translate(254.060313 310.627)scale(0.14 -0.14)">
       <use xlink:href="#DejaVuSans-33"/>
       <use xlink:href="#DejaVuSans-2e" x="63.623047"/>
       <use xlink:href="#DejaVuSans-37" x="95.410156"/>
      </g>
     </g>
    </g>
    <g id="xtick_9">
     <g id="line2d_9">
      <g>
       <use xlink:href="#mcb1962e3b2" x="293.535357" y="292.989187" style="stroke: #000000; stroke-width: 0.8"/>
      </g>
     </g>
     <g id="text_9">
      <!-- 4.2 -->
      <g transform="translate(282.40317 310.627)scale(0.14 -0.14)">
       <defs>
        <path id="DejaVuSans-34" d="M 2419 4116 
L 825 1625 
L 2419 1625 
L 2419 4116 
z
M 2253 4666 
L 3047 4666 
L 3047 1625 
L 3713 1625 
L 3713 1100 
L 3047 1100 
L 3047 0 
L 2419 0 
L 2419 1100 
L 313 1100 
L 313 1709 
L 2253 4666 
z
" transform="scale(0.015625)"/>
       </defs>
       <use xlink:href="#DejaVuSans-34"/>
       <use xlink:href="#DejaVuSans-2e" x="63.623047"/>
       <use xlink:href="#DejaVuSans-32" x="95.410156"/>
      </g>
     </g>
    </g>
    <g id="xtick_10">
     <g id="line2d_10">
      <g>
       <use xlink:href="#mcb1962e3b2" x="321.878214" y="292.989187" style="stroke: #000000; stroke-width: 0.8"/>
      </g>
     </g>
     <g id="text_10">
      <!-- 4.7 -->
      <g transform="translate(310.746027 310.627)scale(0.14 -0.14)">
       <use xlink:href="#DejaVuSans-34"/>
       <use xlink:href="#DejaVuSans-2e" x="63.623047"/>
       <use xlink:href="#DejaVuSans-37" x="95.410156"/>
      </g>
     </g>
    </g>
    <g id="xtick_11">
     <g id="line2d_11">
      <g>
       <use xlink:href="#mcb1962e3b2" x="350.221071" y="292.989187" style="stroke: #000000; stroke-width: 0.8"/>
      </g>
     </g>
     <g id="text_11">
      <!-- 5.2 -->
      <g transform="translate(339.088884 310.627)scale(0.14 -0.14)">
       <defs>
        <path id="DejaVuSans-35" d="M 691 4666 
L 3169 4666 
L 3169 4134 
L 1269 4134 
L 1269 2991 
Q 1406 3038 1543 3061 
Q 1681 3084 1819 3084 
Q 2600 3084 3056 2656 
Q 3513 2228 3513 1497 
Q 3513 744 3044 326 
Q 2575 -91 1722 -91 
Q 1428 -91 1123 -41 
Q 819 9 494 109 
L 494 744 
Q 775 591 1075 516 
Q 1375 441 1709 441 
Q 2250 441 2565 725 
Q 2881 1009 2881 1497 
Q 2881 1984 2565 2268 
Q 2250 2553 1709 2553 
Q 1456 2553 1204 2497 
Q 953 2441 691 2322 
L 691 4666 
z
" transform="scale(0.015625)"/>
       </defs>
       <use xlink:href="#DejaVuSans-35"/>
       <use xlink:href="#DejaVuSans-2e" x="63.623047"/>
       <use xlink:href="#DejaVuSans-32" x="95.410156"/>
      </g>
     </g>
    </g>
    <g id="xtick_12">
     <g id="line2d_12">
      <g>
       <use xlink:href="#mcb1962e3b2" x="378.563929" y="292.989187" style="stroke: #000000; stroke-width: 0.8"/>
      </g>
     </g>
     <g id="text_12">
      <!-- 5.7 -->
      <g transform="translate(367.431741 310.627)scale(0.14 -0.14)">
       <use xlink:href="#DejaVuSans-35"/>
       <use xlink:href="#DejaVuSans-2e" x="63.623047"/>
       <use xlink:href="#DejaVuSans-37" x="95.410156"/>
      </g>
     </g>
    </g>
    <g id="xtick_13">
     <g id="line2d_13">
      <g>
       <use xlink:href="#mcb1962e3b2" x="406.906786" y="292.989187" style="stroke: #000000; stroke-width: 0.8"/>
      </g>
     </g>
     <g id="text_13">
      <!-- 6.2 -->
      <g transform="translate(395.774598 310.627)scale(0.14 -0.14)">
       <defs>
        <path id="DejaVuSans-36" d="M 2113 2584 
Q 1688 2584 1439 2293 
Q 1191 2003 1191 1497 
Q 1191 994 1439 701 
Q 1688 409 2113 409 
Q 2538 409 2786 701 
Q 3034 994 3034 1497 
Q 3034 2003 2786 2293 
Q 2538 2584 2113 2584 
z
M 3366 4563 
L 3366 3988 
Q 3128 4100 2886 4159 
Q 2644 4219 2406 4219 
Q 1781 4219 1451 3797 
Q 1122 3375 1075 2522 
Q 1259 2794 1537 2939 
Q 1816 3084 2150 3084 
Q 2853 3084 3261 2657 
Q 3669 2231 3669 1497 
Q 3669 778 3244 343 
Q 2819 -91 2113 -91 
Q 1303 -91 875 529 
Q 447 1150 447 2328 
Q 447 3434 972 4092 
Q 1497 4750 2381 4750 
Q 2619 4750 2861 4703 
Q 3103 4656 3366 4563 
z
" transform="scale(0.015625)"/>
       </defs>
       <use xlink:href="#DejaVuSans-36"/>
       <use xlink:href="#DejaVuSans-2e" x="63.623047"/>
       <use xlink:href="#DejaVuSans-32" x="95.410156"/>
      </g>
     </g>
    </g>
    <g id="text_14">
     <!-- dE/dx [MeV/cm] -->
     <g transform="translate(173.789844 331.21575)scale(0.18 -0.18)">
      <defs>
       <path id="DejaVuSans-64" d="M 2906 2969 
L 2906 4863 
L 3481 4863 
L 3481 0 
L 2906 0 
L 2906 525 
Q 2725 213 2448 61 
Q 2172 -91 1784 -91 
Q 1150 -91 751 415 
Q 353 922 353 1747 
Q 353 2572 751 3078 
Q 1150 3584 1784 3584 
Q 2172 3584 2448 3432 
Q 2725 3281 2906 2969 
z
M 947 1747 
Q 947 1113 1208 752 
Q 1469 391 1925 391 
Q 2381 391 2643 752 
Q 2906 1113 2906 1747 
Q 2906 2381 2643 2742 
Q 2381 3103 1925 3103 
Q 1469 3103 1208 2742 
Q 947 2381 947 1747 
z
" transform="scale(0.015625)"/>
       <path id="DejaVuSans-45" d="M 628 4666 
L 3578 4666 
L 3578 4134 
L 1259 4134 
L 1259 2753 
L 3481 2753 
L 3481 2222 
L 1259 2222 
L 1259 531 
L 3634 531 
L 3634 0 
L 628 0 
L 628 4666 
z
" transform="scale(0.015625)"/>
       <path id="DejaVuSans-2f" d="M 1625 4666 
L 2156 4666 
L 531 -594 
L 0 -594 
L 1625 4666 
z
" transform="scale(0.015625)"/>
       <path id="DejaVuSans-78" d="M 3513 3500 
L 2247 1797 
L 3578 0 
L 2900 0 
L 1881 1375 
L 863 0 
L 184 0 
L 1544 1831 
L 300 3500 
L 978 3500 
L 1906 2253 
L 2834 3500 
L 3513 3500 
z
" transform="scale(0.015625)"/>
       <path id="DejaVuSans-20" transform="scale(0.015625)"/>
       <path id="DejaVuSans-5b" d="M 550 4863 
L 1875 4863 
L 1875 4416 
L 1125 4416 
L 1125 -397 
L 1875 -397 
L 1875 -844 
L 550 -844 
L 550 4863 
z
" transform="scale(0.015625)"/>
       <path id="DejaVuSans-4d" d="M 628 4666 
L 1569 4666 
L 2759 1491 
L 3956 4666 
L 4897 4666 
L 4897 0 
L 4281 0 
L 4281 4097 
L 3078 897 
L 2444 897 
L 1241 4097 
L 1241 0 
L 628 0 
L 628 4666 
z
" transform="scale(0.015625)"/>
       <path id="DejaVuSans-65" d="M 3597 1894 
L 3597 1613 
L 953 1613 
Q 991 1019 1311 708 
Q 1631 397 2203 397 
Q 2534 397 2845 478 
Q 3156 559 3463 722 
L 3463 178 
Q 3153 47 2828 -22 
Q 2503 -91 2169 -91 
Q 1331 -91 842 396 
Q 353 884 353 1716 
Q 353 2575 817 3079 
Q 1281 3584 2069 3584 
Q 2775 3584 3186 3129 
Q 3597 2675 3597 1894 
z
M 3022 2063 
Q 3016 2534 2758 2815 
Q 2500 3097 2075 3097 
Q 1594 3097 1305 2825 
Q 1016 2553 972 2059 
L 3022 2063 
z
" transform="scale(0.015625)"/>
       <path id="DejaVuSans-56" d="M 1831 0 
L 50 4666 
L 709 4666 
L 2188 738 
L 3669 4666 
L 4325 4666 
L 2547 0 
L 1831 0 
z
" transform="scale(0.015625)"/>
       <path id="DejaVuSans-63" d="M 3122 3366 
L 3122 2828 
Q 2878 2963 2633 3030 
Q 2388 3097 2138 3097 
Q 1578 3097 1268 2742 
Q 959 2388 959 1747 
Q 959 1106 1268 751 
Q 1578 397 2138 397 
Q 2388 397 2633 464 
Q 2878 531 3122 666 
L 3122 134 
Q 2881 22 2623 -34 
Q 2366 -91 2075 -91 
Q 1284 -91 818 406 
Q 353 903 353 1747 
Q 353 2603 823 3093 
Q 1294 3584 2113 3584 
Q 2378 3584 2631 3529 
Q 2884 3475 3122 3366 
z
" transform="scale(0.015625)"/>
       <path id="DejaVuSans-6d" d="M 3328 2828 
Q 3544 3216 3844 3400 
Q 4144 3584 4550 3584 
Q 5097 3584 5394 3201 
Q 5691 2819 5691 2113 
L 5691 0 
L 5113 0 
L 5113 2094 
Q 5113 2597 4934 2840 
Q 4756 3084 4391 3084 
Q 3944 3084 3684 2787 
Q 3425 2491 3425 1978 
L 3425 0 
L 2847 0 
L 2847 2094 
Q 2847 2600 2669 2842 
Q 2491 3084 2119 3084 
Q 1678 3084 1418 2786 
Q 1159 2488 1159 1978 
L 1159 0 
L 581 0 
L 581 3500 
L 1159 3500 
L 1159 2956 
Q 1356 3278 1631 3431 
Q 1906 3584 2284 3584 
Q 2666 3584 2933 3390 
Q 3200 3197 3328 2828 
z
" transform="scale(0.015625)"/>
       <path id="DejaVuSans-5d" d="M 1947 4863 
L 1947 -844 
L 622 -844 
L 622 -397 
L 1369 -397 
L 1369 4416 
L 622 4416 
L 622 4863 
L 1947 4863 
z
" transform="scale(0.015625)"/>
      </defs>
      <use xlink:href="#DejaVuSans-64"/>
      <use xlink:href="#DejaVuSans-45" x="63.476562"/>
      <use xlink:href="#DejaVuSans-2f" x="126.660156"/>
      <use xlink:href="#DejaVuSans-64" x="160.351562"/>
      <use xlink:href="#DejaVuSans-78" x="223.828125"/>
      <use xlink:href="#DejaVuSans-20" x="283.007812"/>
      <use xlink:href="#DejaVuSans-5b" x="314.794922"/>
      <use xlink:href="#DejaVuSans-4d" x="353.808594"/>
      <use xlink:href="#DejaVuSans-65" x="440.087891"/>
      <use xlink:href="#DejaVuSans-56" x="501.611328"/>
      <use xlink:href="#DejaVuSans-2f" x="570.019531"/>
      <use xlink:href="#DejaVuSans-63" x="603.710938"/>
      <use xlink:href="#DejaVuSans-6d" x="658.691406"/>
      <use xlink:href="#DejaVuSans-5d" x="756.103516"/>
     </g>
    </g>
   </g>
   <g id="matplotlib.axis_2">
    <g id="ytick_1">
     <g id="line2d_14">
      <defs>
       <path id="mf913a9a434" d="M 0 0 
L -3.5 0 
" style="stroke: #000000; stroke-width: 0.8"/>
      </defs>
      <g>
       <use xlink:href="#mf913a9a434" x="66.7925" y="292.989187" style="stroke: #000000; stroke-width: 0.8"/>
      </g>
     </g>
     <g id="text_15">
      <!-- 0.00 -->
      <g transform="translate(28.620625 298.308094)scale(0.14 -0.14)">
       <use xlink:href="#DejaVuSans-30"/>
       <use xlink:href="#DejaVuSans-2e" x="63.623047"/>
       <use xlink:href="#DejaVuSans-30" x="95.410156"/>
       <use xlink:href="#DejaVuSans-30" x="159.033203"/>
      </g>
     </g>
    </g>
    <g id="ytick_2">
     <g id="line2d_15">
      <g>
       <use xlink:href="#mf913a9a434" x="66.7925" y="246.186512" style="stroke: #000000; stroke-width: 0.8"/>
      </g>
     </g>
     <g id="text_16">
      <!-- 0.02 -->
      <g transform="translate(28.620625 251.505419)scale(0.14 -0.14)">
       <use xlink:href="#DejaVuSans-30"/>
       <use xlink:href="#DejaVuSans-2e" x="63.623047"/>
       <use xlink:href="#DejaVuSans-30" x="95.410156"/>
       <use xlink:href="#DejaVuSans-32" x="159.033203"/>
      </g>
     </g>
    </g>
    <g id="ytick_3">
     <g id="line2d_16">
      <g>
       <use xlink:href="#mf913a9a434" x="66.7925" y="199.383837" style="stroke: #000000; stroke-width: 0.8"/>
      </g>
     </g>
     <g id="text_17">
      <!-- 0.04 -->
      <g transform="translate(28.620625 204.702744)scale(0.14 -0.14)">
       <use xlink:href="#DejaVuSans-30"/>
       <use xlink:href="#DejaVuSans-2e" x="63.623047"/>
       <use xlink:href="#DejaVuSans-30" x="95.410156"/>
       <use xlink:href="#DejaVuSans-34" x="159.033203"/>
      </g>
     </g>
    </g>
    <g id="ytick_4">
     <g id="line2d_17">
      <g>
       <use xlink:href="#mf913a9a434" x="66.7925" y="152.581162" style="stroke: #000000; stroke-width: 0.8"/>
      </g>
     </g>
     <g id="text_18">
      <!-- 0.06 -->
      <g transform="translate(28.620625 157.900068)scale(0.14 -0.14)">
       <use xlink:href="#DejaVuSans-30"/>
       <use xlink:href="#DejaVuSans-2e" x="63.623047"/>
       <use xlink:href="#DejaVuSans-30" x="95.410156"/>
       <use xlink:href="#DejaVuSans-36" x="159.033203"/>
      </g>
     </g>
    </g>
    <g id="ytick_5">
     <g id="line2d_18">
      <g>
       <use xlink:href="#mf913a9a434" x="66.7925" y="105.778487" style="stroke: #000000; stroke-width: 0.8"/>
      </g>
     </g>
     <g id="text_19">
      <!-- 0.08 -->
      <g transform="translate(28.620625 111.097393)scale(0.14 -0.14)">
       <defs>
        <path id="DejaVuSans-38" d="M 2034 2216 
Q 1584 2216 1326 1975 
Q 1069 1734 1069 1313 
Q 1069 891 1326 650 
Q 1584 409 2034 409 
Q 2484 409 2743 651 
Q 3003 894 3003 1313 
Q 3003 1734 2745 1975 
Q 2488 2216 2034 2216 
z
M 1403 2484 
Q 997 2584 770 2862 
Q 544 3141 544 3541 
Q 544 4100 942 4425 
Q 1341 4750 2034 4750 
Q 2731 4750 3128 4425 
Q 3525 4100 3525 3541 
Q 3525 3141 3298 2862 
Q 3072 2584 2669 2484 
Q 3125 2378 3379 2068 
Q 3634 1759 3634 1313 
Q 3634 634 3220 271 
Q 2806 -91 2034 -91 
Q 1263 -91 848 271 
Q 434 634 434 1313 
Q 434 1759 690 2068 
Q 947 2378 1403 2484 
z
M 1172 3481 
Q 1172 3119 1398 2916 
Q 1625 2713 2034 2713 
Q 2441 2713 2670 2916 
Q 2900 3119 2900 3481 
Q 2900 3844 2670 4047 
Q 2441 4250 2034 4250 
Q 1625 4250 1398 4047 
Q 1172 3844 1172 3481 
z
" transform="scale(0.015625)"/>
       </defs>
       <use xlink:href="#DejaVuSans-30"/>
       <use xlink:href="#DejaVuSans-2e" x="63.623047"/>
       <use xlink:href="#DejaVuSans-30" x="95.410156"/>
       <use xlink:href="#DejaVuSans-38" x="159.033203"/>
      </g>
     </g>
    </g>
    <g id="ytick_6">
     <g id="line2d_19">
      <g>
       <use xlink:href="#mf913a9a434" x="66.7925" y="58.975812" style="stroke: #000000; stroke-width: 0.8"/>
      </g>
     </g>
     <g id="text_20">
      <!-- 0.10 -->
      <g transform="translate(28.620625 64.294718)scale(0.14 -0.14)">
       <use xlink:href="#DejaVuSans-30"/>
       <use xlink:href="#DejaVuSans-2e" x="63.623047"/>
       <use xlink:href="#DejaVuSans-31" x="95.410156"/>
       <use xlink:href="#DejaVuSans-30" x="159.033203"/>
      </g>
     </g>
    </g>
    <g id="text_21">
     <!-- entries (area normalized) -->
     <g transform="translate(20.877187 273.949125)rotate(-90)scale(0.18 -0.18)">
      <defs>
       <path id="DejaVuSans-6e" d="M 3513 2113 
L 3513 0 
L 2938 0 
L 2938 2094 
Q 2938 2591 2744 2837 
Q 2550 3084 2163 3084 
Q 1697 3084 1428 2787 
Q 1159 2491 1159 1978 
L 1159 0 
L 581 0 
L 581 3500 
L 1159 3500 
L 1159 2956 
Q 1366 3272 1645 3428 
Q 1925 3584 2291 3584 
Q 2894 3584 3203 3211 
Q 3513 2838 3513 2113 
z
" transform="scale(0.015625)"/>
       <path id="DejaVuSans-74" d="M 1172 4494 
L 1172 3500 
L 2356 3500 
L 2356 3053 
L 1172 3053 
L 1172 1153 
Q 1172 725 1289 603 
Q 1406 481 1766 481 
L 2356 481 
L 2356 0 
L 1766 0 
Q 1100 0 847 248 
Q 594 497 594 1153 
L 594 3053 
L 172 3053 
L 172 3500 
L 594 3500 
L 594 4494 
L 1172 4494 
z
" transform="scale(0.015625)"/>
       <path id="DejaVuSans-72" d="M 2631 2963 
Q 2534 3019 2420 3045 
Q 2306 3072 2169 3072 
Q 1681 3072 1420 2755 
Q 1159 2438 1159 1844 
L 1159 0 
L 581 0 
L 581 3500 
L 1159 3500 
L 1159 2956 
Q 1341 3275 1631 3429 
Q 1922 3584 2338 3584 
Q 2397 3584 2469 3576 
Q 2541 3569 2628 3553 
L 2631 2963 
z
" transform="scale(0.015625)"/>
       <path id="DejaVuSans-69" d="M 603 3500 
L 1178 3500 
L 1178 0 
L 603 0 
L 603 3500 
z
M 603 4863 
L 1178 4863 
L 1178 4134 
L 603 4134 
L 603 4863 
z
" transform="scale(0.015625)"/>
       <path id="DejaVuSans-73" d="M 2834 3397 
L 2834 2853 
Q 2591 2978 2328 3040 
Q 2066 3103 1784 3103 
Q 1356 3103 1142 2972 
Q 928 2841 928 2578 
Q 928 2378 1081 2264 
Q 1234 2150 1697 2047 
L 1894 2003 
Q 2506 1872 2764 1633 
Q 3022 1394 3022 966 
Q 3022 478 2636 193 
Q 2250 -91 1575 -91 
Q 1294 -91 989 -36 
Q 684 19 347 128 
L 347 722 
Q 666 556 975 473 
Q 1284 391 1588 391 
Q 1994 391 2212 530 
Q 2431 669 2431 922 
Q 2431 1156 2273 1281 
Q 2116 1406 1581 1522 
L 1381 1569 
Q 847 1681 609 1914 
Q 372 2147 372 2553 
Q 372 3047 722 3315 
Q 1072 3584 1716 3584 
Q 2034 3584 2315 3537 
Q 2597 3491 2834 3397 
z
" transform="scale(0.015625)"/>
       <path id="DejaVuSans-28" d="M 1984 4856 
Q 1566 4138 1362 3434 
Q 1159 2731 1159 2009 
Q 1159 1288 1364 580 
Q 1569 -128 1984 -844 
L 1484 -844 
Q 1016 -109 783 600 
Q 550 1309 550 2009 
Q 550 2706 781 3412 
Q 1013 4119 1484 4856 
L 1984 4856 
z
" transform="scale(0.015625)"/>
       <path id="DejaVuSans-61" d="M 2194 1759 
Q 1497 1759 1228 1600 
Q 959 1441 959 1056 
Q 959 750 1161 570 
Q 1363 391 1709 391 
Q 2188 391 2477 730 
Q 2766 1069 2766 1631 
L 2766 1759 
L 2194 1759 
z
M 3341 1997 
L 3341 0 
L 2766 0 
L 2766 531 
Q 2569 213 2275 61 
Q 1981 -91 1556 -91 
Q 1019 -91 701 211 
Q 384 513 384 1019 
Q 384 1609 779 1909 
Q 1175 2209 1959 2209 
L 2766 2209 
L 2766 2266 
Q 2766 2663 2505 2880 
Q 2244 3097 1772 3097 
Q 1472 3097 1187 3025 
Q 903 2953 641 2809 
L 641 3341 
Q 956 3463 1253 3523 
Q 1550 3584 1831 3584 
Q 2591 3584 2966 3190 
Q 3341 2797 3341 1997 
z
" transform="scale(0.015625)"/>
       <path id="DejaVuSans-6f" d="M 1959 3097 
Q 1497 3097 1228 2736 
Q 959 2375 959 1747 
Q 959 1119 1226 758 
Q 1494 397 1959 397 
Q 2419 397 2687 759 
Q 2956 1122 2956 1747 
Q 2956 2369 2687 2733 
Q 2419 3097 1959 3097 
z
M 1959 3584 
Q 2709 3584 3137 3096 
Q 3566 2609 3566 1747 
Q 3566 888 3137 398 
Q 2709 -91 1959 -91 
Q 1206 -91 779 398 
Q 353 888 353 1747 
Q 353 2609 779 3096 
Q 1206 3584 1959 3584 
z
" transform="scale(0.015625)"/>
       <path id="DejaVuSans-6c" d="M 603 4863 
L 1178 4863 
L 1178 0 
L 603 0 
L 603 4863 
z
" transform="scale(0.015625)"/>
       <path id="DejaVuSans-7a" d="M 353 3500 
L 3084 3500 
L 3084 2975 
L 922 459 
L 3084 459 
L 3084 0 
L 275 0 
L 275 525 
L 2438 3041 
L 353 3041 
L 353 3500 
z
" transform="scale(0.015625)"/>
       <path id="DejaVuSans-29" d="M 513 4856 
L 1013 4856 
Q 1481 4119 1714 3412 
Q 1947 2706 1947 2009 
Q 1947 1309 1714 600 
Q 1481 -109 1013 -844 
L 513 -844 
Q 928 -128 1133 580 
Q 1338 1288 1338 2009 
Q 1338 2731 1133 3434 
Q 928 4138 513 4856 
z
" transform="scale(0.015625)"/>
      </defs>
      <use xlink:href="#DejaVuSans-65"/>
      <use xlink:href="#DejaVuSans-6e" x="61.523438"/>
      <use xlink:href="#DejaVuSans-74" x="124.902344"/>
      <use xlink:href="#DejaVuSans-72" x="164.111328"/>
      <use xlink:href="#DejaVuSans-69" x="205.224609"/>
      <use xlink:href="#DejaVuSans-65" x="233.007812"/>
      <use xlink:href="#DejaVuSans-73" x="294.53125"/>
      <use xlink:href="#DejaVuSans-20" x="346.630859"/>
      <use xlink:href="#DejaVuSans-28" x="378.417969"/>
      <use xlink:href="#DejaVuSans-61" x="417.431641"/>
      <use xlink:href="#DejaVuSans-72" x="478.710938"/>
      <use xlink:href="#DejaVuSans-65" x="517.574219"/>
      <use xlink:href="#DejaVuSans-61" x="579.097656"/>
      <use xlink:href="#DejaVuSans-20" x="640.376953"/>
      <use xlink:href="#DejaVuSans-6e" x="672.164062"/>
      <use xlink:href="#DejaVuSans-6f" x="735.542969"/>
      <use xlink:href="#DejaVuSans-72" x="796.724609"/>
      <use xlink:href="#DejaVuSans-6d" x="836.087891"/>
      <use xlink:href="#DejaVuSans-61" x="933.5"/>
      <use xlink:href="#DejaVuSans-6c" x="994.779297"/>
      <use xlink:href="#DejaVuSans-69" x="1022.5625"/>
      <use xlink:href="#DejaVuSans-7a" x="1050.345703"/>
      <use xlink:href="#DejaVuSans-65" x="1102.835938"/>
      <use xlink:href="#DejaVuSans-64" x="1164.359375"/>
      <use xlink:href="#DejaVuSans-29" x="1227.835938"/>
     </g>
    </g>
   </g>
   <g id="line2d_20">
    <path d="M 55.455357 292.989187 
L 83.798214 292.989187 
L 83.798214 278.978899 
L 89.466786 278.978899 
L 89.466786 283.965612 
L 95.135357 283.965612 
L 95.135357 285.865312 
L 100.803929 285.865312 
L 100.803929 286.16214 
L 106.4725 286.16214 
L 106.4725 286.993259 
L 112.141071 286.993259 
L 112.141071 285.687215 
L 117.809643 285.687215 
L 117.809643 284.915462 
L 123.478214 284.915462 
L 123.478214 280.581771 
L 129.146786 280.581771 
L 129.146786 270.252151 
L 134.815357 270.252151 
L 134.815357 251.017687 
L 140.483929 251.017687 
L 140.483929 223.41267 
L 146.1525 223.41267 
L 146.1525 184.053257 
L 151.821071 184.053257 
L 151.821071 135.492172 
L 157.489643 135.492172 
L 157.489643 86.574893 
L 163.158214 86.574893 
L 163.158214 55.882863 
L 168.826786 55.882863 
L 168.826786 59.029241 
L 174.495357 59.029241 
L 174.495357 77.017027 
L 180.163929 77.017027 
L 180.163929 109.193198 
L 185.8325 109.193198 
L 185.8325 141.844294 
L 191.501071 141.844294 
L 191.501071 173.308078 
L 197.169643 173.308078 
L 197.169643 203.287721 
L 202.838214 203.287721 
L 202.838214 222.522185 
L 208.506786 222.522185 
L 208.506786 239.44139 
L 214.175357 239.44139 
L 214.175357 247.218287 
L 219.843929 247.218287 
L 219.843929 258.913316 
L 225.5125 258.913316 
L 225.5125 264.137491 
L 231.181071 264.137491 
L 231.181071 269.599129 
L 236.849643 269.599129 
L 236.849643 271.320733 
L 242.518214 271.320733 
L 242.518214 275.713789 
L 248.186786 275.713789 
L 248.186786 277.732221 
L 253.855357 277.732221 
L 253.855357 280.166211 
L 259.523929 280.166211 
L 259.523929 282.540837 
L 265.1925 282.540837 
L 265.1925 284.440537 
L 270.861071 284.440537 
L 270.861071 284.024977 
L 276.529643 284.024977 
L 276.529643 285.687215 
L 282.198214 285.687215 
L 282.198214 286.993259 
L 293.535357 286.993259 
L 293.535357 287.349453 
L 299.203929 287.349453 
L 299.203929 288.952325 
L 304.8725 288.952325 
L 304.8725 288.833593 
L 310.541071 288.833593 
L 310.541071 289.308518 
L 316.209643 289.308518 
L 316.209643 290.673928 
L 321.878214 290.673928 
L 321.878214 290.436465 
L 327.546786 290.436465 
L 327.546786 288.952325 
L 333.215357 288.952325 
L 333.215357 290.673928 
L 338.883929 290.673928 
L 338.883929 290.91139 
L 344.5525 290.91139 
L 344.5525 289.96154 
L 350.221071 289.96154 
L 350.221071 290.436465 
L 355.889643 290.436465 
L 355.889643 290.91139 
L 361.558214 290.91139 
L 361.558214 290.792659 
L 367.226786 290.792659 
L 367.226786 291.564412 
L 372.895357 291.564412 
L 372.895357 291.801875 
L 389.901071 291.742509 
L 389.901071 292.039337 
L 395.569643 292.039337 
L 395.569643 291.742509 
L 401.238214 291.742509 
L 401.238214 292.098703 
L 406.906786 292.098703 
L 406.906786 292.336166 
L 412.575357 292.336166 
L 412.575357 292.454897 
L 418.243929 292.454897 
L 418.243929 292.336166 
L 423.9125 292.336166 
L 423.9125 292.573628 
L 429.581071 292.573628 
L 429.581071 292.2768 
L 432.1125 292.2768 
L 432.1125 292.2768 
" clip-path="url(#p6cb93083b5)" style="fill: none; stroke: #0000ff; stroke-width: 2; stroke-linecap: square"/>
   </g>
   <g id="line2d_21">
    <path d="M 55.455357 292.989187 
L 83.798214 292.989187 
L 83.798214 281.765524 
L 89.466786 281.765524 
L 89.466786 285.24486 
L 95.135357 285.24486 
L 95.135357 287.770184 
L 106.4725 287.714066 
L 106.4725 287.657948 
L 112.141071 287.657948 
L 112.141071 286.423345 
L 117.809643 286.423345 
L 117.809643 284.739795 
L 123.478214 284.739795 
L 123.478214 280.025857 
L 129.146786 280.025857 
L 129.146786 269.307258 
L 134.815357 269.307258 
L 134.815357 252.752355 
L 140.483929 252.752355 
L 140.483929 222.448465 
L 146.1525 222.448465 
L 146.1525 179.29348 
L 151.821071 179.29348 
L 151.821071 126.6545 
L 157.489643 126.6545 
L 157.489643 88.886874 
L 163.158214 88.886874 
L 163.158214 54.261874 
L 168.826786 54.261874 
L 168.826786 57.348381 
L 174.495357 57.348381 
L 174.495357 77.382619 
L 180.163929 77.382619 
L 180.163929 109.370059 
L 185.8325 109.370059 
L 185.8325 146.352029 
L 191.501071 146.352029 
L 191.501071 177.329339 
L 197.169643 177.329339 
L 197.169643 202.6387 
L 202.838214 202.6387 
L 202.838214 224.075896 
L 208.506786 224.075896 
L 208.506786 237.039227 
L 214.175357 237.039227 
L 214.175357 249.27302 
L 219.843929 249.27302 
L 219.843929 257.634649 
L 225.5125 257.634649 
L 225.5125 262.011877 
L 231.181071 262.011877 
L 231.181071 269.25114 
L 236.849643 269.25114 
L 236.849643 271.944819 
L 242.518214 271.944819 
L 242.518214 275.087445 
L 248.186786 275.087445 
L 248.186786 279.296319 
L 253.855357 279.296319 
L 253.855357 281.709406 
L 259.523929 281.709406 
L 259.523929 281.989998 
L 265.1925 281.989998 
L 265.1925 283.954139 
L 276.529643 284.010257 
L 276.529643 284.964268 
L 282.198214 284.964268 
L 282.198214 285.469333 
L 287.866786 285.469333 
L 287.866786 287.770184 
L 293.535357 287.770184 
L 293.535357 287.882421 
L 299.203929 287.882421 
L 299.203929 287.657948 
L 304.8725 287.657948 
L 304.8725 288.275249 
L 310.541071 288.275249 
L 310.541071 289.173142 
L 316.209643 289.173142 
L 316.209643 290.5761 
L 321.878214 290.5761 
L 321.878214 290.407745 
L 333.215357 290.407745 
L 333.215357 290.071035 
L 338.883929 290.071035 
L 338.883929 290.407745 
L 344.5525 290.407745 
L 344.5525 290.632218 
L 350.221071 290.632218 
L 350.221071 290.856692 
L 355.889643 290.856692 
L 355.889643 291.193401 
L 361.558214 291.193401 
L 361.558214 291.305638 
L 372.895357 291.361756 
L 372.895357 292.091294 
L 378.563929 292.091294 
L 378.563929 291.810703 
L 384.2325 291.810703 
L 384.2325 291.979058 
L 389.901071 291.979058 
L 389.901071 291.866821 
L 406.906786 291.810703 
L 406.906786 292.371886 
L 412.575357 292.371886 
L 412.575357 292.203531 
L 423.9125 292.203531 
L 423.9125 292.540241 
L 429.581071 292.540241 
L 429.581071 292.091294 
L 432.1125 292.091294 
L 432.1125 292.091294 
" clip-path="url(#p6cb93083b5)" style="fill: none; stroke: #ffa500; stroke-width: 2; stroke-linecap: square"/>
   </g>
   <g id="line2d_22">
    <path d="M 55.455357 292.989187 
L 83.798214 292.989187 
L 83.798214 281.271356 
L 89.466786 281.271356 
L 89.466786 285.473205 
L 95.135357 285.473205 
L 95.135357 288.25471 
L 100.803929 288.25471 
L 100.803929 289.024063 
L 106.4725 289.024063 
L 106.4725 287.544539 
L 112.141071 287.544539 
L 112.141071 288.017986 
L 117.809643 288.017986 
L 117.809643 284.467128 
L 123.478214 284.467128 
L 123.478214 280.857089 
L 129.146786 280.857089 
L 129.146786 272.275849 
L 134.815357 272.275849 
L 134.815357 257.480608 
L 140.483929 257.480608 
L 140.483929 225.582067 
L 146.1525 225.582067 
L 146.1525 185.93082 
L 151.821071 185.93082 
L 151.821071 127.164121 
L 157.489643 127.164121 
L 157.489643 79.93771 
L 163.158214 79.93771 
L 163.158214 52.655285 
L 168.826786 52.655285 
L 168.826786 48.808522 
L 174.495357 48.808522 
L 174.495357 71.35647 
L 180.163929 71.35647 
L 180.163929 105.918154 
L 185.8325 105.918154 
L 185.8325 146.10203 
L 191.501071 146.10203 
L 191.501071 181.906514 
L 197.169643 181.906514 
L 197.169643 205.282996 
L 202.838214 205.282996 
L 202.838214 223.392372 
L 208.506786 223.392372 
L 208.506786 239.903861 
L 214.175357 239.903861 
L 214.175357 245.644415 
L 219.843929 245.644415 
L 219.843929 259.196856 
L 225.5125 259.196856 
L 225.5125 261.386552 
L 231.181071 261.386552 
L 231.181071 267.600553 
L 236.849643 267.600553 
L 236.849643 271.269773 
L 242.518214 271.269773 
L 242.518214 277.602136 
L 248.186786 277.602136 
L 248.186786 278.963299 
L 253.855357 278.963299 
L 253.855357 281.271356 
L 259.523929 281.271356 
L 259.523929 281.093813 
L 265.1925 281.093813 
L 265.1925 282.928423 
L 270.861071 282.928423 
L 270.861071 284.58549 
L 276.529643 284.58549 
L 276.529643 285.354843 
L 282.198214 285.354843 
L 282.198214 287.071091 
L 287.866786 287.071091 
L 287.866786 287.366996 
L 293.535357 287.366996 
L 293.535357 287.544539 
L 299.203929 287.544539 
L 299.203929 288.728158 
L 304.8725 288.728158 
L 304.8725 288.017986 
L 310.541071 288.017986 
L 310.541071 289.615872 
L 316.209643 289.615872 
L 316.209643 290.030139 
L 321.878214 290.030139 
L 321.878214 289.497511 
L 333.215357 289.43833 
L 333.215357 290.917854 
L 338.883929 290.917854 
L 338.883929 291.095397 
L 344.5525 291.095397 
L 344.5525 291.628025 
L 350.221071 291.628025 
L 350.221071 291.272939 
L 361.558214 291.213759 
L 361.558214 291.154578 
L 367.226786 291.154578 
L 367.226786 291.746387 
L 372.895357 291.746387 
L 372.895357 291.450482 
L 378.563929 291.450482 
L 378.563929 291.272939 
L 384.2325 291.272939 
L 384.2325 291.687206 
L 389.901071 291.687206 
L 389.901071 292.219835 
L 401.238214 292.160654 
L 401.238214 291.92393 
L 406.906786 291.92393 
L 406.906786 292.101473 
L 418.243929 292.101473 
L 418.243929 291.864749 
L 423.9125 291.864749 
L 423.9125 292.456559 
L 429.581071 292.456559 
L 429.581071 292.693283 
L 432.1125 292.693283 
L 432.1125 292.693283 
" clip-path="url(#p6cb93083b5)" style="fill: none; stroke: #ff0000; stroke-width: 2; stroke-linecap: square"/>
   </g>
   <g id="line2d_23">
    <path d="M 55.455357 292.989187 
L 83.798214 292.989187 
L 83.798214 279.781599 
L 89.466786 279.781599 
L 89.466786 286.056697 
L 95.135357 286.056697 
L 95.135357 286.475037 
L 100.803929 286.475037 
L 100.803929 288.148397 
L 106.4725 288.148397 
L 106.4725 286.654326 
L 112.141071 286.654326 
L 112.141071 287.670294 
L 117.809643 287.670294 
L 117.809643 284.204049 
L 123.478214 284.204049 
L 123.478214 280.498753 
L 129.146786 280.498753 
L 129.146786 275.299385 
L 134.815357 275.299385 
L 134.815357 258.565788 
L 140.483929 258.565788 
L 140.483929 229.700334 
L 146.1525 229.700334 
L 146.1525 185.834405 
L 151.821071 185.834405 
L 151.821071 133.601678 
L 157.489643 133.601678 
L 157.489643 88.600255 
L 163.158214 88.600255 
L 163.158214 53.459701 
L 168.826786 53.459701 
L 168.826786 51.069187 
L 174.495357 51.069187 
L 174.495357 68.75899 
L 180.163929 68.75899 
L 180.163929 103.003101 
L 185.8325 103.003101 
L 185.8325 137.306974 
L 191.501071 137.306974 
L 191.501071 178.005472 
L 197.169643 178.005472 
L 197.169643 202.32895 
L 202.838214 202.32895 
L 202.838214 220.974958 
L 208.506786 220.974958 
L 208.506786 236.393772 
L 214.175357 236.393772 
L 214.175357 251.155195 
L 219.843929 251.155195 
L 219.843929 257.729108 
L 225.5125 257.729108 
L 225.5125 265.139701 
L 231.181071 265.139701 
L 231.181071 266.15567 
L 236.849643 266.15567 
L 236.849643 274.701757 
L 242.518214 274.701757 
L 242.518214 275.000571 
L 248.186786 275.000571 
L 248.186786 280.319464 
L 253.855357 280.319464 
L 253.855357 280.917093 
L 259.523929 280.917093 
L 259.523929 282.411164 
L 265.1925 282.411164 
L 265.1925 284.204049 
L 270.861071 284.204049 
L 270.861071 284.502863 
L 276.529643 284.502863 
L 276.529643 285.220018 
L 282.198214 285.220018 
L 282.198214 285.459069 
L 287.866786 285.459069 
L 287.866786 287.431243 
L 293.535357 287.431243 
L 293.535357 287.550769 
L 299.203929 287.550769 
L 299.203929 287.670294 
L 304.8725 287.670294 
L 304.8725 288.327686 
L 310.541071 288.327686 
L 310.541071 289.582705 
L 327.546786 289.582705 
L 327.546786 290.359622 
L 333.215357 290.359622 
L 333.215357 290.718199 
L 338.883929 290.718199 
L 338.883929 290.299859 
L 344.5525 290.299859 
L 344.5525 291.076776 
L 355.889643 291.136539 
L 355.889643 290.837725 
L 361.558214 290.837725 
L 361.558214 291.256065 
L 367.226786 291.256065 
L 367.226786 291.674405 
L 384.2325 291.734168 
L 384.2325 291.973219 
L 401.238214 291.973219 
L 401.238214 291.734168 
L 406.906786 291.734168 
L 406.906786 292.272033 
L 418.243929 292.212271 
L 418.243929 291.973219 
L 429.581071 292.032982 
L 429.581071 292.272033 
L 432.1125 292.272033 
L 432.1125 292.272033 
" clip-path="url(#p6cb93083b5)" style="fill: none; stroke: #008000; stroke-width: 2; stroke-linecap: square"/>
   </g>
   <g id="patch_3">
    <path d="M 66.7925 292.989187 
L 66.7925 26.877187 
" style="fill: none; stroke: #000000; stroke-width: 0.8; stroke-linejoin: miter; stroke-linecap: square"/>
   </g>
   <g id="patch_4">
    <path d="M 423.9125 292.989187 
L 423.9125 26.877187 
" style="fill: none; stroke: #000000; stroke-width: 0.8; stroke-linejoin: miter; stroke-linecap: square"/>
   </g>
   <g id="patch_5">
    <path d="M 66.7925 292.989187 
L 423.9125 292.989187 
" style="fill: none; stroke: #000000; stroke-width: 0.8; stroke-linejoin: miter; stroke-linecap: square"/>
   </g>
   <g id="patch_6">
    <path d="M 66.7925 26.877187 
L 423.9125 26.877187 
" style="fill: none; stroke: #000000; stroke-width: 0.8; stroke-linejoin: miter; stroke-linecap: square"/>
   </g>
   <g id="text_22">
    <!-- DATI 1D DECONV. -->
    <g transform="translate(166.014688 20.877187)scale(0.18 -0.18)">
     <defs>
      <path id="DejaVuSans-44" d="M 1259 4147 
L 1259 519 
L 2022 519 
Q 2988 519 3436 956 
Q 3884 1394 3884 2338 
Q 3884 3275 3436 3711 
Q 2988 4147 2022 4147 
L 1259 4147 
z
M 628 4666 
L 1925 4666 
Q 3281 4666 3915 4102 
Q 4550 3538 4550 2338 
Q 4550 1131 3912 565 
Q 3275 0 1925 0 
L 628 0 
L 628 4666 
z
" transform="scale(0.015625)"/>
      <path id="DejaVuSans-41" d="M 2188 4044 
L 1331 1722 
L 3047 1722 
L 2188 4044 
z
M 1831 4666 
L 2547 4666 
L 4325 0 
L 3669 0 
L 3244 1197 
L 1141 1197 
L 716 0 
L 50 0 
L 1831 4666 
z
" transform="scale(0.015625)"/>
      <path id="DejaVuSans-54" d="M -19 4666 
L 3928 4666 
L 3928 4134 
L 2272 4134 
L 2272 0 
L 1638 0 
L 1638 4134 
L -19 4134 
L -19 4666 
z
" transform="scale(0.015625)"/>
      <path id="DejaVuSans-49" d="M 628 4666 
L 1259 4666 
L 1259 0 
L 628 0 
L 628 4666 
z
" transform="scale(0.015625)"/>
      <path id="DejaVuSans-43" d="M 4122 4306 
L 4122 3641 
Q 3803 3938 3442 4084 
Q 3081 4231 2675 4231 
Q 1875 4231 1450 3742 
Q 1025 3253 1025 2328 
Q 1025 1406 1450 917 
Q 1875 428 2675 428 
Q 3081 428 3442 575 
Q 3803 722 4122 1019 
L 4122 359 
Q 3791 134 3420 21 
Q 3050 -91 2638 -91 
Q 1578 -91 968 557 
Q 359 1206 359 2328 
Q 359 3453 968 4101 
Q 1578 4750 2638 4750 
Q 3056 4750 3426 4639 
Q 3797 4528 4122 4306 
z
" transform="scale(0.015625)"/>
      <path id="DejaVuSans-4f" d="M 2522 4238 
Q 1834 4238 1429 3725 
Q 1025 3213 1025 2328 
Q 1025 1447 1429 934 
Q 1834 422 2522 422 
Q 3209 422 3611 934 
Q 4013 1447 4013 2328 
Q 4013 3213 3611 3725 
Q 3209 4238 2522 4238 
z
M 2522 4750 
Q 3503 4750 4090 4092 
Q 4678 3434 4678 2328 
Q 4678 1225 4090 567 
Q 3503 -91 2522 -91 
Q 1538 -91 948 565 
Q 359 1222 359 2328 
Q 359 3434 948 4092 
Q 1538 4750 2522 4750 
z
" transform="scale(0.015625)"/>
      <path id="DejaVuSans-4e" d="M 628 4666 
L 1478 4666 
L 3547 763 
L 3547 4666 
L 4159 4666 
L 4159 0 
L 3309 0 
L 1241 3903 
L 1241 0 
L 628 0 
L 628 4666 
z
" transform="scale(0.015625)"/>
     </defs>
     <use xlink:href="#DejaVuSans-44"/>
     <use xlink:href="#DejaVuSans-41" x="75.251953"/>
     <use xlink:href="#DejaVuSans-54" x="135.910156"/>
     <use xlink:href="#DejaVuSans-49" x="196.994141"/>
     <use xlink:href="#DejaVuSans-20" x="226.486328"/>
     <use xlink:href="#DejaVuSans-31" x="258.273438"/>
     <use xlink:href="#DejaVuSans-44" x="321.896484"/>
     <use xlink:href="#DejaVuSans-20" x="398.898438"/>
     <use xlink:href="#DejaVuSans-44" x="430.685547"/>
     <use xlink:href="#DejaVuSans-45" x="507.6875"/>
     <use xlink:href="#DejaVuSans-43" x="570.871094"/>
     <use xlink:href="#DejaVuSans-4f" x="640.695312"/>
     <use xlink:href="#DejaVuSans-4e" x="719.40625"/>
     <use xlink:href="#DejaVuSans-56" x="794.210938"/>
     <use xlink:href="#DejaVuSans-2e" x="849.744141"/>
    </g>
   </g>
   <g id="legend_1">
    <g id="patch_7">
     <path d="M 212.827656 115.439062 
L 416.2125 115.439062 
Q 418.4125 115.439062 418.4125 113.239062 
L 418.4125 34.577187 
Q 418.4125 32.377187 416.2125 32.377187 
L 212.827656 32.377187 
Q 210.627656 32.377187 210.627656 34.577187 
L 210.627656 113.239062 
Q 210.627656 115.439062 212.827656 115.439062 
z
" style="fill: #ffffff; stroke: #cccccc; stroke-linejoin: miter"/>
    </g>
    <g id="text_23">
     <!-- MUONS 25 &lt; RR &lt; 30 cm -->
     <g transform="translate(244.834922 44.375625)scale(0.1 -0.1)">
      <defs>
       <path id="DejaVuSans-Bold-4d" d="M 588 4666 
L 2119 4666 
L 3181 2169 
L 4250 4666 
L 5778 4666 
L 5778 0 
L 4641 0 
L 4641 3413 
L 3566 897 
L 2803 897 
L 1728 3413 
L 1728 0 
L 588 0 
L 588 4666 
z
" transform="scale(0.015625)"/>
       <path id="DejaVuSans-Bold-55" d="M 588 4666 
L 1791 4666 
L 1791 1869 
Q 1791 1291 1980 1042 
Q 2169 794 2597 794 
Q 3028 794 3217 1042 
Q 3406 1291 3406 1869 
L 3406 4666 
L 4609 4666 
L 4609 1869 
Q 4609 878 4112 393 
Q 3616 -91 2597 -91 
Q 1581 -91 1084 393 
Q 588 878 588 1869 
L 588 4666 
z
" transform="scale(0.015625)"/>
       <path id="DejaVuSans-Bold-4f" d="M 2719 3878 
Q 2169 3878 1866 3472 
Q 1563 3066 1563 2328 
Q 1563 1594 1866 1187 
Q 2169 781 2719 781 
Q 3272 781 3575 1187 
Q 3878 1594 3878 2328 
Q 3878 3066 3575 3472 
Q 3272 3878 2719 3878 
z
M 2719 4750 
Q 3844 4750 4481 4106 
Q 5119 3463 5119 2328 
Q 5119 1197 4481 553 
Q 3844 -91 2719 -91 
Q 1597 -91 958 553 
Q 319 1197 319 2328 
Q 319 3463 958 4106 
Q 1597 4750 2719 4750 
z
" transform="scale(0.015625)"/>
       <path id="DejaVuSans-Bold-4e" d="M 588 4666 
L 1931 4666 
L 3628 1466 
L 3628 4666 
L 4769 4666 
L 4769 0 
L 3425 0 
L 1728 3200 
L 1728 0 
L 588 0 
L 588 4666 
z
" transform="scale(0.015625)"/>
       <path id="DejaVuSans-Bold-53" d="M 3834 4519 
L 3834 3531 
Q 3450 3703 3084 3790 
Q 2719 3878 2394 3878 
Q 1963 3878 1756 3759 
Q 1550 3641 1550 3391 
Q 1550 3203 1689 3098 
Q 1828 2994 2194 2919 
L 2706 2816 
Q 3484 2659 3812 2340 
Q 4141 2022 4141 1434 
Q 4141 663 3683 286 
Q 3225 -91 2284 -91 
Q 1841 -91 1394 -6 
Q 947 78 500 244 
L 500 1259 
Q 947 1022 1364 901 
Q 1781 781 2169 781 
Q 2563 781 2772 912 
Q 2981 1044 2981 1288 
Q 2981 1506 2839 1625 
Q 2697 1744 2272 1838 
L 1806 1941 
Q 1106 2091 782 2419 
Q 459 2747 459 3303 
Q 459 4000 909 4375 
Q 1359 4750 2203 4750 
Q 2588 4750 2994 4692 
Q 3400 4634 3834 4519 
z
" transform="scale(0.015625)"/>
       <path id="DejaVuSans-Bold-20" transform="scale(0.015625)"/>
       <path id="DejaVuSans-Bold-32" d="M 1844 884 
L 3897 884 
L 3897 0 
L 506 0 
L 506 884 
L 2209 2388 
Q 2438 2594 2547 2791 
Q 2656 2988 2656 3200 
Q 2656 3528 2436 3728 
Q 2216 3928 1850 3928 
Q 1569 3928 1234 3808 
Q 900 3688 519 3450 
L 519 4475 
Q 925 4609 1322 4679 
Q 1719 4750 2100 4750 
Q 2938 4750 3402 4381 
Q 3866 4013 3866 3353 
Q 3866 2972 3669 2642 
Q 3472 2313 2841 1759 
L 1844 884 
z
" transform="scale(0.015625)"/>
       <path id="DejaVuSans-Bold-35" d="M 678 4666 
L 3669 4666 
L 3669 3781 
L 1638 3781 
L 1638 3059 
Q 1775 3097 1914 3117 
Q 2053 3138 2203 3138 
Q 3056 3138 3531 2711 
Q 4006 2284 4006 1522 
Q 4006 766 3489 337 
Q 2972 -91 2053 -91 
Q 1656 -91 1267 -14 
Q 878 63 494 219 
L 494 1166 
Q 875 947 1217 837 
Q 1559 728 1863 728 
Q 2300 728 2551 942 
Q 2803 1156 2803 1522 
Q 2803 1891 2551 2103 
Q 2300 2316 1863 2316 
Q 1603 2316 1309 2248 
Q 1016 2181 678 2041 
L 678 4666 
z
" transform="scale(0.015625)"/>
       <path id="DejaVuSans-Bold-3c" d="M 4684 3041 
L 1672 2003 
L 4684 972 
L 4684 191 
L 678 1638 
L 678 2375 
L 4684 3822 
L 4684 3041 
z
" transform="scale(0.015625)"/>
       <path id="DejaVuSans-Bold-52" d="M 2297 2597 
Q 2675 2597 2839 2737 
Q 3003 2878 3003 3200 
Q 3003 3519 2839 3656 
Q 2675 3794 2297 3794 
L 1791 3794 
L 1791 2597 
L 2297 2597 
z
M 1791 1766 
L 1791 0 
L 588 0 
L 588 4666 
L 2425 4666 
Q 3347 4666 3776 4356 
Q 4206 4047 4206 3378 
Q 4206 2916 3982 2619 
Q 3759 2322 3309 2181 
Q 3556 2125 3751 1926 
Q 3947 1728 4147 1325 
L 4800 0 
L 3519 0 
L 2950 1159 
Q 2778 1509 2601 1637 
Q 2425 1766 2131 1766 
L 1791 1766 
z
" transform="scale(0.015625)"/>
       <path id="DejaVuSans-Bold-33" d="M 2981 2516 
Q 3453 2394 3698 2092 
Q 3944 1791 3944 1325 
Q 3944 631 3412 270 
Q 2881 -91 1863 -91 
Q 1503 -91 1142 -33 
Q 781 25 428 141 
L 428 1069 
Q 766 900 1098 814 
Q 1431 728 1753 728 
Q 2231 728 2486 893 
Q 2741 1059 2741 1369 
Q 2741 1688 2480 1852 
Q 2219 2016 1709 2016 
L 1228 2016 
L 1228 2791 
L 1734 2791 
Q 2188 2791 2409 2933 
Q 2631 3075 2631 3366 
Q 2631 3634 2415 3781 
Q 2200 3928 1806 3928 
Q 1516 3928 1219 3862 
Q 922 3797 628 3669 
L 628 4550 
Q 984 4650 1334 4700 
Q 1684 4750 2022 4750 
Q 2931 4750 3382 4451 
Q 3834 4153 3834 3553 
Q 3834 3144 3618 2883 
Q 3403 2622 2981 2516 
z
" transform="scale(0.015625)"/>
       <path id="DejaVuSans-Bold-30" d="M 2944 2338 
Q 2944 3213 2780 3570 
Q 2616 3928 2228 3928 
Q 1841 3928 1675 3570 
Q 1509 3213 1509 2338 
Q 1509 1453 1675 1090 
Q 1841 728 2228 728 
Q 2613 728 2778 1090 
Q 2944 1453 2944 2338 
z
M 4147 2328 
Q 4147 1169 3647 539 
Q 3147 -91 2228 -91 
Q 1306 -91 806 539 
Q 306 1169 306 2328 
Q 306 3491 806 4120 
Q 1306 4750 2228 4750 
Q 3147 4750 3647 4120 
Q 4147 3491 4147 2328 
z
" transform="scale(0.015625)"/>
       <path id="DejaVuSans-Bold-63" d="M 3366 3391 
L 3366 2478 
Q 3138 2634 2908 2709 
Q 2678 2784 2431 2784 
Q 1963 2784 1702 2511 
Q 1441 2238 1441 1747 
Q 1441 1256 1702 982 
Q 1963 709 2431 709 
Q 2694 709 2930 787 
Q 3166 866 3366 1019 
L 3366 103 
Q 3103 6 2833 -42 
Q 2563 -91 2291 -91 
Q 1344 -91 809 395 
Q 275 881 275 1747 
Q 275 2613 809 3098 
Q 1344 3584 2291 3584 
Q 2566 3584 2833 3536 
Q 3100 3488 3366 3391 
z
" transform="scale(0.015625)"/>
       <path id="DejaVuSans-Bold-6d" d="M 3781 2919 
Q 3994 3244 4286 3414 
Q 4578 3584 4928 3584 
Q 5531 3584 5847 3212 
Q 6163 2841 6163 2131 
L 6163 0 
L 5038 0 
L 5038 1825 
Q 5041 1866 5042 1909 
Q 5044 1953 5044 2034 
Q 5044 2406 4934 2573 
Q 4825 2741 4581 2741 
Q 4263 2741 4089 2478 
Q 3916 2216 3909 1719 
L 3909 0 
L 2784 0 
L 2784 1825 
Q 2784 2406 2684 2573 
Q 2584 2741 2328 2741 
Q 2006 2741 1831 2477 
Q 1656 2213 1656 1722 
L 1656 0 
L 531 0 
L 531 3500 
L 1656 3500 
L 1656 2988 
Q 1863 3284 2130 3434 
Q 2397 3584 2719 3584 
Q 3081 3584 3359 3409 
Q 3638 3234 3781 2919 
z
" transform="scale(0.015625)"/>
      </defs>
      <use xlink:href="#DejaVuSans-Bold-4d"/>
      <use xlink:href="#DejaVuSans-Bold-55" x="99.511719"/>
      <use xlink:href="#DejaVuSans-Bold-4f" x="180.712891"/>
      <use xlink:href="#DejaVuSans-Bold-4e" x="265.722656"/>
      <use xlink:href="#DejaVuSans-Bold-53" x="349.414062"/>
      <use xlink:href="#DejaVuSans-Bold-20" x="421.435547"/>
      <use xlink:href="#DejaVuSans-Bold-32" x="456.25"/>
      <use xlink:href="#DejaVuSans-Bold-35" x="525.830078"/>
      <use xlink:href="#DejaVuSans-Bold-20" x="595.410156"/>
      <use xlink:href="#DejaVuSans-Bold-3c" x="630.224609"/>
      <use xlink:href="#DejaVuSans-Bold-20" x="714.013672"/>
      <use xlink:href="#DejaVuSans-Bold-52" x="748.828125"/>
      <use xlink:href="#DejaVuSans-Bold-52" x="825.830078"/>
      <use xlink:href="#DejaVuSans-Bold-20" x="902.832031"/>
      <use xlink:href="#DejaVuSans-Bold-3c" x="937.646484"/>
      <use xlink:href="#DejaVuSans-Bold-20" x="1021.435547"/>
      <use xlink:href="#DejaVuSans-Bold-33" x="1056.25"/>
      <use xlink:href="#DejaVuSans-Bold-30" x="1125.830078"/>
      <use xlink:href="#DejaVuSans-Bold-20" x="1195.410156"/>
      <use xlink:href="#DejaVuSans-Bold-63" x="1230.224609"/>
      <use xlink:href="#DejaVuSans-Bold-6d" x="1289.501953"/>
     </g>
    </g>
    <g id="line2d_24">
     <path d="M 215.027656 56.463594 
L 220.527656 56.463594 
L 220.527656 56.463594 
L 231.527656 56.463594 
L 231.527656 56.463594 
L 237.027656 56.463594 
" style="fill: none; stroke: #0000ff; stroke-width: 2; stroke-linecap: square"/>
    </g>
    <g id="text_24">
     <!-- EE mpv=1.974, width=0.266 -->
     <g transform="translate(245.827656 60.313594)scale(0.11 -0.11)">
      <defs>
       <path id="DejaVuSans-70" d="M 1159 525 
L 1159 -1331 
L 581 -1331 
L 581 3500 
L 1159 3500 
L 1159 2969 
Q 1341 3281 1617 3432 
Q 1894 3584 2278 3584 
Q 2916 3584 3314 3078 
Q 3713 2572 3713 1747 
Q 3713 922 3314 415 
Q 2916 -91 2278 -91 
Q 1894 -91 1617 61 
Q 1341 213 1159 525 
z
M 3116 1747 
Q 3116 2381 2855 2742 
Q 2594 3103 2138 3103 
Q 1681 3103 1420 2742 
Q 1159 2381 1159 1747 
Q 1159 1113 1420 752 
Q 1681 391 2138 391 
Q 2594 391 2855 752 
Q 3116 1113 3116 1747 
z
" transform="scale(0.015625)"/>
       <path id="DejaVuSans-76" d="M 191 3500 
L 800 3500 
L 1894 563 
L 2988 3500 
L 3597 3500 
L 2284 0 
L 1503 0 
L 191 3500 
z
" transform="scale(0.015625)"/>
       <path id="DejaVuSans-3d" d="M 678 2906 
L 4684 2906 
L 4684 2381 
L 678 2381 
L 678 2906 
z
M 678 1631 
L 4684 1631 
L 4684 1100 
L 678 1100 
L 678 1631 
z
" transform="scale(0.015625)"/>
       <path id="DejaVuSans-39" d="M 703 97 
L 703 672 
Q 941 559 1184 500 
Q 1428 441 1663 441 
Q 2288 441 2617 861 
Q 2947 1281 2994 2138 
Q 2813 1869 2534 1725 
Q 2256 1581 1919 1581 
Q 1219 1581 811 2004 
Q 403 2428 403 3163 
Q 403 3881 828 4315 
Q 1253 4750 1959 4750 
Q 2769 4750 3195 4129 
Q 3622 3509 3622 2328 
Q 3622 1225 3098 567 
Q 2575 -91 1691 -91 
Q 1453 -91 1209 -44 
Q 966 3 703 97 
z
M 1959 2075 
Q 2384 2075 2632 2365 
Q 2881 2656 2881 3163 
Q 2881 3666 2632 3958 
Q 2384 4250 1959 4250 
Q 1534 4250 1286 3958 
Q 1038 3666 1038 3163 
Q 1038 2656 1286 2365 
Q 1534 2075 1959 2075 
z
" transform="scale(0.015625)"/>
       <path id="DejaVuSans-2c" d="M 750 794 
L 1409 794 
L 1409 256 
L 897 -744 
L 494 -744 
L 750 256 
L 750 794 
z
" transform="scale(0.015625)"/>
       <path id="DejaVuSans-77" d="M 269 3500 
L 844 3500 
L 1563 769 
L 2278 3500 
L 2956 3500 
L 3675 769 
L 4391 3500 
L 4966 3500 
L 4050 0 
L 3372 0 
L 2619 2869 
L 1863 0 
L 1184 0 
L 269 3500 
z
" transform="scale(0.015625)"/>
       <path id="DejaVuSans-68" d="M 3513 2113 
L 3513 0 
L 2938 0 
L 2938 2094 
Q 2938 2591 2744 2837 
Q 2550 3084 2163 3084 
Q 1697 3084 1428 2787 
Q 1159 2491 1159 1978 
L 1159 0 
L 581 0 
L 581 4863 
L 1159 4863 
L 1159 2956 
Q 1366 3272 1645 3428 
Q 1925 3584 2291 3584 
Q 2894 3584 3203 3211 
Q 3513 2838 3513 2113 
z
" transform="scale(0.015625)"/>
      </defs>
      <use xlink:href="#DejaVuSans-45"/>
      <use xlink:href="#DejaVuSans-45" x="63.183594"/>
      <use xlink:href="#DejaVuSans-20" x="126.367188"/>
      <use xlink:href="#DejaVuSans-6d" x="158.154297"/>
      <use xlink:href="#DejaVuSans-70" x="255.566406"/>
      <use xlink:href="#DejaVuSans-76" x="319.042969"/>
      <use xlink:href="#DejaVuSans-3d" x="378.222656"/>
      <use xlink:href="#DejaVuSans-31" x="462.011719"/>
      <use xlink:href="#DejaVuSans-2e" x="525.634766"/>
      <use xlink:href="#DejaVuSans-39" x="557.421875"/>
      <use xlink:href="#DejaVuSans-37" x="621.044922"/>
      <use xlink:href="#DejaVuSans-34" x="684.667969"/>
      <use xlink:href="#DejaVuSans-2c" x="748.291016"/>
      <use xlink:href="#DejaVuSans-20" x="780.078125"/>
      <use xlink:href="#DejaVuSans-77" x="811.865234"/>
      <use xlink:href="#DejaVuSans-69" x="893.652344"/>
      <use xlink:href="#DejaVuSans-64" x="921.435547"/>
      <use xlink:href="#DejaVuSans-74" x="984.912109"/>
      <use xlink:href="#DejaVuSans-68" x="1024.121094"/>
      <use xlink:href="#DejaVuSans-3d" x="1087.5"/>
      <use xlink:href="#DejaVuSans-30" x="1171.289062"/>
      <use xlink:href="#DejaVuSans-2e" x="1234.912109"/>
      <use xlink:href="#DejaVuSans-32" x="1266.699219"/>
      <use xlink:href="#DejaVuSans-36" x="1330.322266"/>
      <use xlink:href="#DejaVuSans-36" x="1393.945312"/>
     </g>
    </g>
    <g id="line2d_25">
     <path d="M 215.027656 72.609531 
L 220.527656 72.609531 
L 220.527656 72.609531 
L 231.527656 72.609531 
L 231.527656 72.609531 
L 237.027656 72.609531 
" style="fill: none; stroke: #ffa500; stroke-width: 2; stroke-linecap: square"/>
    </g>
    <g id="text_25">
     <!-- EW mpv=1.967, width=0.265 -->
     <g transform="translate(245.827656 76.459531)scale(0.11 -0.11)">
      <defs>
       <path id="DejaVuSans-57" d="M 213 4666 
L 850 4666 
L 1831 722 
L 2809 4666 
L 3519 4666 
L 4500 722 
L 5478 4666 
L 6119 4666 
L 4947 0 
L 4153 0 
L 3169 4050 
L 2175 0 
L 1381 0 
L 213 4666 
z
" transform="scale(0.015625)"/>
      </defs>
      <use xlink:href="#DejaVuSans-45"/>
      <use xlink:href="#DejaVuSans-57" x="63.183594"/>
      <use xlink:href="#DejaVuSans-20" x="162.060547"/>
      <use xlink:href="#DejaVuSans-6d" x="193.847656"/>
      <use xlink:href="#DejaVuSans-70" x="291.259766"/>
      <use xlink:href="#DejaVuSans-76" x="354.736328"/>
      <use xlink:href="#DejaVuSans-3d" x="413.916016"/>
      <use xlink:href="#DejaVuSans-31" x="497.705078"/>
      <use xlink:href="#DejaVuSans-2e" x="561.328125"/>
      <use xlink:href="#DejaVuSans-39" x="593.115234"/>
      <use xlink:href="#DejaVuSans-36" x="656.738281"/>
      <use xlink:href="#DejaVuSans-37" x="720.361328"/>
      <use xlink:href="#DejaVuSans-2c" x="783.984375"/>
      <use xlink:href="#DejaVuSans-20" x="815.771484"/>
      <use xlink:href="#DejaVuSans-77" x="847.558594"/>
      <use xlink:href="#DejaVuSans-69" x="929.345703"/>
      <use xlink:href="#DejaVuSans-64" x="957.128906"/>
      <use xlink:href="#DejaVuSans-74" x="1020.605469"/>
      <use xlink:href="#DejaVuSans-68" x="1059.814453"/>
      <use xlink:href="#DejaVuSans-3d" x="1123.193359"/>
      <use xlink:href="#DejaVuSans-30" x="1206.982422"/>
      <use xlink:href="#DejaVuSans-2e" x="1270.605469"/>
      <use xlink:href="#DejaVuSans-32" x="1302.392578"/>
      <use xlink:href="#DejaVuSans-36" x="1366.015625"/>
      <use xlink:href="#DejaVuSans-35" x="1429.638672"/>
     </g>
    </g>
    <g id="line2d_26">
     <path d="M 215.027656 88.755469 
L 220.527656 88.755469 
L 220.527656 88.755469 
L 231.527656 88.755469 
L 231.527656 88.755469 
L 237.027656 88.755469 
" style="fill: none; stroke: #ff0000; stroke-width: 2; stroke-linecap: square"/>
    </g>
    <g id="text_26">
     <!-- WE mpv=1.970, width=0.254 -->
     <g transform="translate(245.827656 92.605469)scale(0.11 -0.11)">
      <use xlink:href="#DejaVuSans-57"/>
      <use xlink:href="#DejaVuSans-45" x="98.876953"/>
      <use xlink:href="#DejaVuSans-20" x="162.060547"/>
      <use xlink:href="#DejaVuSans-6d" x="193.847656"/>
      <use xlink:href="#DejaVuSans-70" x="291.259766"/>
      <use xlink:href="#DejaVuSans-76" x="354.736328"/>
      <use xlink:href="#DejaVuSans-3d" x="413.916016"/>
      <use xlink:href="#DejaVuSans-31" x="497.705078"/>
      <use xlink:href="#DejaVuSans-2e" x="561.328125"/>
      <use xlink:href="#DejaVuSans-39" x="593.115234"/>
      <use xlink:href="#DejaVuSans-37" x="656.738281"/>
      <use xlink:href="#DejaVuSans-30" x="720.361328"/>
      <use xlink:href="#DejaVuSans-2c" x="783.984375"/>
      <use xlink:href="#DejaVuSans-20" x="815.771484"/>
      <use xlink:href="#DejaVuSans-77" x="847.558594"/>
      <use xlink:href="#DejaVuSans-69" x="929.345703"/>
      <use xlink:href="#DejaVuSans-64" x="957.128906"/>
      <use xlink:href="#DejaVuSans-74" x="1020.605469"/>
      <use xlink:href="#DejaVuSans-68" x="1059.814453"/>
      <use xlink:href="#DejaVuSans-3d" x="1123.193359"/>
      <use xlink:href="#DejaVuSans-30" x="1206.982422"/>
      <use xlink:href="#DejaVuSans-2e" x="1270.605469"/>
      <use xlink:href="#DejaVuSans-32" x="1302.392578"/>
      <use xlink:href="#DejaVuSans-35" x="1366.015625"/>
      <use xlink:href="#DejaVuSans-34" x="1429.638672"/>
     </g>
    </g>
    <g id="line2d_27">
     <path d="M 215.027656 104.901406 
L 220.527656 104.901406 
L 220.527656 104.901406 
L 231.527656 104.901406 
L 231.527656 104.901406 
L 237.027656 104.901406 
" style="fill: none; stroke: #008000; stroke-width: 2; stroke-linecap: square"/>
    </g>
    <g id="text_27">
     <!-- WW mpv=1.980, width=0.258 -->
     <g transform="translate(245.827656 108.751406)scale(0.11 -0.11)">
      <use xlink:href="#DejaVuSans-57"/>
      <use xlink:href="#DejaVuSans-57" x="98.876953"/>
      <use xlink:href="#DejaVuSans-20" x="197.753906"/>
      <use xlink:href="#DejaVuSans-6d" x="229.541016"/>
      <use xlink:href="#DejaVuSans-70" x="326.953125"/>
      <use xlink:href="#DejaVuSans-76" x="390.429688"/>
      <use xlink:href="#DejaVuSans-3d" x="449.609375"/>
      <use xlink:href="#DejaVuSans-31" x="533.398438"/>
      <use xlink:href="#DejaVuSans-2e" x="597.021484"/>
      <use xlink:href="#DejaVuSans-39" x="628.808594"/>
      <use xlink:href="#DejaVuSans-38" x="692.431641"/>
      <use xlink:href="#DejaVuSans-30" x="756.054688"/>
      <use xlink:href="#DejaVuSans-2c" x="819.677734"/>
      <use xlink:href="#DejaVuSans-20" x="851.464844"/>
      <use xlink:href="#DejaVuSans-77" x="883.251953"/>
      <use xlink:href="#DejaVuSans-69" x="965.039062"/>
      <use xlink:href="#DejaVuSans-64" x="992.822266"/>
      <use xlink:href="#DejaVuSans-74" x="1056.298828"/>
      <use xlink:href="#DejaVuSans-68" x="1095.507812"/>
      <use xlink:href="#DejaVuSans-3d" x="1158.886719"/>
      <use xlink:href="#DejaVuSans-30" x="1242.675781"/>
      <use xlink:href="#DejaVuSans-2e" x="1306.298828"/>
      <use xlink:href="#DejaVuSans-32" x="1338.085938"/>
      <use xlink:href="#DejaVuSans-35" x="1401.708984"/>
      <use xlink:href="#DejaVuSans-38" x="1465.332031"/>
     </g>
    </g>
   </g>
  </g>
 </g>
 <defs>
  <clipPath id="p6cb93083b5">
   <rect x="66.7925" y="26.877187" width="357.12" height="266.112"/>
  </clipPath>
 </defs>
</svg>
